<svg version="1.1" id="Layer_1" xmlns="http://www.w3.org/2000/svg" xmlns:xlink="http://www.w3.org/1999/xlink" x="0px" y="0px"
	 width="100%" viewBox="0 0 64 64" enable-background="new 0 0 64 64" xml:space="preserve">
<path fill="#000000" opacity="1.000000" stroke="none" 
	d="
M43.000290,65.000000 
	C29.500229,65.000000 16.499584,64.935005 3.500875,65.064407 
	C1.351107,65.085808 0.925187,64.648628 0.936909,62.499893 
	C1.044192,42.833813 1.044125,23.166672 0.936975,3.500593 
	C0.925273,1.352867 1.351331,0.925185 3.500093,0.936907 
	C23.166172,1.044193 42.833313,1.044124 62.499393,0.936978 
	C64.647087,0.925276 65.074821,1.351292 65.063095,3.500078 
	C64.955811,23.166157 64.955872,42.833298 65.063011,62.499378 
	C65.074715,64.647041 64.656799,65.129265 62.498348,65.066010 
	C56.170471,64.880600 49.833660,65.000000 43.000290,65.000000 
z"/>
<path fill="#37D0EE" opacity="1.000000" stroke="none" 
	d="
M33.300293,50.558861 
	C26.659935,50.891235 20.350975,51.001297 14.042479,50.979137 
	C10.082050,50.965229 8.027325,48.850491 8.006826,44.872372 
	C7.984571,40.553497 8.013412,36.234360 8.093018,31.452061 
	C9.435913,29.320408 10.143009,27.063854 13.031966,26.644691 
	C20.718380,26.818047 28.027708,26.874100 35.339043,26.566032 
	C27.920984,25.621227 20.414762,27.001896 12.674887,25.467531 
	C10.788539,23.553848 10.750061,21.417383 10.635122,18.859512 
	C10.978238,17.399170 11.541862,16.628460 12.825447,15.846310 
	C16.312891,14.474395 19.498055,14.742880 22.641949,14.734314 
	C31.945999,14.708961 41.250805,14.647598 50.553963,14.776021 
	C52.825558,14.807379 55.269718,14.425899 57.497482,16.638720 
	C57.882408,19.364470 57.931316,21.728884 57.908665,24.530960 
	C54.490086,27.669210 55.852753,32.003403 54.038803,35.585815 
	C52.853291,36.829685 51.229546,36.115025 50.341087,37.202168 
	C51.538193,36.503658 52.751232,36.279819 54.162758,37.644119 
	C55.918655,45.251194 53.900658,47.794060 46.634144,48.223537 
	C42.251942,48.482544 37.580643,47.197582 33.300293,50.558861 
z"/>
<path fill="#9C34C2" opacity="1.000000" stroke="none" 
	d="
M57.902145,16.589695 
	C43.198563,16.986319 28.563627,16.972586 13.463698,16.896133 
	C10.897207,12.326707 11.562311,11.242533 17.333923,10.419293 
	C22.544342,9.171361 27.901264,10.860891 32.610512,7.332273 
	C38.277653,7.108624 43.591423,7.024067 48.905396,7.007664 
	C55.593311,6.987020 57.986595,9.434337 57.902145,16.589695 
z"/>
<path fill="#2FB1CB" opacity="1.000000" stroke="none" 
	d="
M52.746033,36.293350 
	C53.002903,33.636448 52.922596,31.174694 53.175705,28.747713 
	C53.405529,26.544060 54.870453,25.309361 57.464035,25.001978 
	C57.891125,31.619429 57.994579,38.270336 57.980602,44.921001 
	C57.972237,48.898766 55.855839,50.972691 51.867214,50.990158 
	C45.878593,51.016392 39.889713,50.983173 33.434822,50.906166 
	C33.138744,47.320232 35.183250,45.963661 38.486065,46.006214 
	C40.619984,46.033710 42.754639,46.002026 44.888966,46.000015 
	C53.028389,45.992348 53.028389,45.992825 52.952972,37.368954 
	C52.811073,36.783081 52.682587,36.643368 52.746033,36.293350 
z"/>
<path fill="#BA71D4" opacity="1.000000" stroke="none" 
	d="
M32.501797,7.092594 
	C30.505342,14.055566 24.630371,11.567653 19.340794,11.933300 
	C13.752100,9.218768 12.766813,9.831227 10.420174,17.203251 
	C9.668172,17.565672 9.198767,17.571432 8.445494,17.227409 
	C7.723754,8.621985 9.243258,7.019030 17.689184,7.003310 
	C22.472694,6.994406 27.256258,7.014973 32.501797,7.092594 
z"/>
<path fill="#73DEF3" opacity="1.000000" stroke="none" 
	d="
M8.091272,17.460415 
	C8.535330,16.999599 8.905729,16.998714 9.553935,16.997257 
	C10.926360,16.940977 11.239439,17.808784 11.882929,18.782778 
	C13.420359,20.587107 12.846543,22.493906 13.070129,24.661098 
	C13.723397,25.724163 13.777730,26.495909 13.267544,27.646156 
	C11.608563,28.936329 10.204041,29.906101 8.482790,30.932331 
	C8.116580,26.632641 8.067098,22.276495 8.091272,17.460415 
z"/>
<path fill="#008AA9" opacity="1.000000" stroke="none" 
	d="
M13.390430,28.151188 
	C13.018336,27.239611 13.023585,26.512667 13.063086,25.422638 
	C21.612268,22.816034 30.261528,24.385647 38.847542,24.203413 
	C40.050701,24.177877 41.290840,25.234777 41.259583,26.369942 
	C41.212990,28.061895 39.750694,28.949614 38.131950,28.909332 
	C30.010822,28.707239 21.857742,29.796118 13.390430,28.151188 
z"/>
<path fill="#008AA9" opacity="1.000000" stroke="none" 
	d="
M36.449860,37.004845 
	C38.930176,37.054943 41.408676,37.182323 41.111656,39.839279 
	C40.879902,41.912403 38.518566,42.008503 36.615986,42.001869 
	C30.129541,41.979248 23.642910,42.006519 17.156506,41.978535 
	C15.286502,41.970470 13.156701,41.921333 13.291424,39.307442 
	C13.406062,37.083210 15.354175,37.025799 17.053835,37.019867 
	C23.373970,36.997795 29.694208,37.005390 36.449860,37.004845 
z"/>
<path fill="#FFFFFF" opacity="1.000000" stroke="none" 
	d="
M12.127562,18.699211 
	C11.448524,18.527124 10.794002,18.034952 9.985611,17.269733 
	C10.139627,13.916806 9.170236,10.124826 13.684244,9.238457 
	C15.674493,8.847652 17.996613,8.270060 18.887096,11.535114 
	C16.274670,12.347389 12.098220,10.523169 12.998793,16.416403 
	C12.339523,17.142178 12.099056,17.680275 12.127562,18.699211 
z"/>
<path fill="#9B35C2" opacity="1.000000" stroke="none" 
	d="
M48.629829,27.656075 
	C46.296589,27.176754 43.919712,25.092615 45.508335,23.973797 
	C46.996284,22.925880 49.222984,21.271683 51.510509,21.384321 
	C52.559650,21.435980 52.850975,22.554052 51.935326,23.599041 
	C50.860279,24.825945 49.929268,26.179054 48.629829,27.656075 
z"/>
<path fill="#9B35C2" opacity="1.000000" stroke="none" 
	d="
M52.635693,35.949471 
	C52.937962,36.083054 52.960609,36.502598 52.950081,36.712692 
	C51.666065,37.724720 50.609371,38.699524 49.951321,40.110512 
	C49.462765,41.158073 48.761257,42.362427 47.368061,41.606659 
	C46.243050,40.996376 45.077110,40.103848 45.098236,38.583992 
	C45.126286,36.565956 46.352985,37.526337 47.459457,37.545502 
	C49.204922,37.575729 49.720989,33.756149 52.635693,35.949471 
z"/>
</svg>